#N canvas 1146 578 506 347 12;
#N canvas 0 50 2030 1100 random-cloud 0;
#X obj 79 296 random 147;
#X obj 70 232 metro 30;
#X msg 100 164 stop;
#X obj 79 539 bng 15 250 50 0 empty empty empty 17 7 0 10 -262144 -1
-1;
#X obj 194 539 bng 15 250 50 0 empty empty empty 17 7 0 10 -262144
-1 -1;
#X floatatom 169 150 5 0 0 0 - - -;
#X obj 161 53 loadbang;
#X msg 165 83 30;
#X obj 80 387 pack 0 1;
#X floatatom 179 259 5 0 0 0 - - -;
#X msg 226 81 180;
#X obj 76 456 s nkeyactive;
#X obj 82 560 hsl 400 15 0 2000 0 0 empty empty empty -2 -8 0 10 -262144
-1 -1 0 1;
#X obj 82 579 hsl 400 15 0 2000 0 0 empty empty empty -2 -8 0 10 -262144
-1 -1 19591 1;
#X obj 77 342 + 0;
#X obj 556 286 random 147;
#X obj 547 222 metro 30;
#X msg 577 154 stop;
#X obj 79 612 bng 15 250 50 0 empty empty empty 17 7 0 10 -262144 -1
-1;
#X obj 194 611 bng 15 250 50 0 empty empty empty 17 7 0 10 -262144
-1 -1;
#X floatatom 646 140 5 0 0 0 - - -;
#X obj 638 43 loadbang;
#X msg 642 73 30;
#X floatatom 656 249 5 0 0 0 - - -;
#X msg 703 71 180;
#X obj 553 446 s nkeyactive;
#X obj 82 633 hsl 400 15 0 2000 0 0 empty empty empty -2 -8 0 10 -262144
-1 -1 0 1;
#X obj 82 652 hsl 400 15 0 2000 0 0 empty empty empty -2 -8 0 10 -262144
-1 -1 3591 1;
#X obj 554 332 + 0;
#X obj 557 377 pack 0 0;
#X floatatom 228 384 5 0 0 0 - - -;
#X floatatom 719 391 5 0 0 0 - - -;
#X text 76 505 Random Cloud;
#X text 99 535 putter on;
#X text 213 535 putter off;
#X text 97 608 remover on;
#X text 212 608 remover off;
#X text 487 557 min;
#X text 487 576 max;
#X text 486 630 min;
#X text 486 649 max;
#X connect 0 0 14 0;
#X connect 1 0 0 0;
#X connect 2 0 1 0;
#X connect 3 0 1 0;
#X connect 4 0 2 0;
#X connect 5 0 1 1;
#X connect 6 0 7 0;
#X connect 6 0 10 0;
#X connect 7 0 5 0;
#X connect 8 0 11 0;
#X connect 9 0 0 1;
#X connect 10 0 9 0;
#X connect 10 0 13 0;
#X connect 12 0 14 1;
#X connect 13 0 9 0;
#X connect 14 0 8 0;
#X connect 14 0 30 0;
#X connect 15 0 28 0;
#X connect 16 0 15 0;
#X connect 17 0 16 0;
#X connect 18 0 16 0;
#X connect 19 0 17 0;
#X connect 20 0 16 1;
#X connect 21 0 22 0;
#X connect 21 0 24 0;
#X connect 22 0 20 0;
#X connect 23 0 15 1;
#X connect 24 0 23 0;
#X connect 24 0 27 0;
#X connect 26 0 28 1;
#X connect 27 0 23 0;
#X connect 28 0 29 0;
#X connect 28 0 31 0;
#X connect 29 0 25 0;
#X coords 0 -1 1 1 460 180 2 70 500;
#X restore 16 143 pd random-cloud;
#N canvas 1031 31 976 565 cluster-maker 0;
#X obj 416 217 s nkeyactive;
#X msg 403 134 17 1;
#X msg 469 133 17 0;
#X obj 170 464 bng 15 250 50 0 empty empty empty 17 7 0 10 -262144
-1 -1;
#X obj 69 123 uzi 146;
#X obj 98 188 pack 0 1;
#X obj 213 463 bng 15 250 50 0 empty empty empty 17 7 0 10 -262144
-1 -1;
#X obj 179 113 uzi 146;
#X obj 208 178 pack 0 0;
#X obj 171 421 hsl 128 15 0 146 0 0 empty empty empty -2 -8 0 10 -262144
-1 -1 0 1;
#X obj 105 153 + 0;
#X obj 171 440 hsl 128 15 1 146 0 0 empty empty empty -2 -8 0 10 -262144
-1 -1 12700 1;
#X obj 88 310 int;
#X obj 23 376 int;
#X obj 42 230 - 0;
#X text 168 394 Cluster Maker;
#X text 188 461 on;
#X text 230 459 off;
#X connect 1 0 0 0;
#X connect 2 0 0 0;
#X connect 3 0 4 0;
#X connect 4 2 10 0;
#X connect 5 0 0 0;
#X connect 6 0 7 0;
#X connect 7 2 8 0;
#X connect 8 0 0 0;
#X connect 9 0 12 0;
#X connect 10 0 5 0;
#X connect 11 0 13 0;
#X connect 12 0 10 1;
#X connect 12 0 14 1;
#X connect 13 0 14 0;
#X connect 14 0 4 1;
#X coords 0 -1 1 1 170 100 2 150 390;
#X restore 289 14 pd cluster-maker;
#N canvas 363 158 1045 1142 swiper 0;
#X obj 91 297 counter 1 146;
#X obj 29 43 bng 15 250 50 0 empty empty empty 17 7 0 10 -262144 -1
-1;
#X obj 130 206 t b b;
#X msg 144 333 stop;
#X obj 109 497 pack 0 1;
#X obj 118 572 s nkeyactive;
#X obj 196 496 pack 0 0;
#X obj 295 379 counter 1 146;
#X obj 334 288 t b b;
#X msg 348 414 stop;
#X obj 40 258 metro 40;
#X obj 244 340 metro 40;
#X obj 98 43 bng 15 250 50 0 empty empty empty 17 7 0 10 -262144 -1
-1;
#X floatatom 170 94 5 0 0 0 - - -;
#X floatatom 171 71 5 0 0 0 - - -;
#X obj 35 95 hsl 128 15 1 1000 0 0 empty empty empty -2 -8 0 10 -262144
-1 -1 1000 1;
#X obj 34 71 hsl 128 15 10 2000 0 0 empty empty empty -2 -8 0 10 -262144
-1 -1 8300 1;
#X obj 241 238 delay 1200 1 msec;
#X text 29 15 Swipe;
#X text 46 39 run;
#X text 115 40 stop;
#X text 212 71 delay;
#X text 215 92 speed;
#X connect 0 0 4 0;
#X connect 0 1 3 0;
#X connect 1 0 2 0;
#X connect 1 0 17 0;
#X connect 2 0 10 0;
#X connect 2 1 0 2;
#X connect 3 0 10 0;
#X connect 4 0 5 0;
#X connect 6 0 5 0;
#X connect 7 0 6 0;
#X connect 7 1 9 0;
#X connect 8 0 11 0;
#X connect 8 1 7 2;
#X connect 9 0 11 0;
#X connect 10 0 0 0;
#X connect 11 0 7 0;
#X connect 12 0 9 0;
#X connect 12 0 3 0;
#X connect 13 0 11 1;
#X connect 13 0 10 1;
#X connect 14 0 17 1;
#X connect 15 0 13 0;
#X connect 16 0 14 0;
#X connect 17 0 8 0;
#X coords 0 -1 1 1 260 120 2 20 10;
#X restore 16 13 pd swiper;
