#N canvas 3173 62 967 769 12;
#X obj 64 77 notein;
#X obj 63 123 print in;
#X obj 180 63 bendin;
#X obj 259 105 print bend2;
#X obj 87 163 print channel;
#X obj 245 147 route 8192 8960 10240 11520;
#X msg 244 187 0;
#X msg 288 186 1;
#X msg 328 186 2;
#X msg 372 184 3;
#X obj 526 177 table bend-states 64;
#X msg 240 311 bend-states set 2 120;
#X connect 0 0 1 0;
#X connect 0 2 4 0;
#X connect 2 0 5 0;
#X connect 2 1 3 0;
#X connect 5 0 6 0;
#X connect 5 1 7 0;
#X connect 5 2 8 0;
#X connect 5 3 9 0;
