#N canvas 2787 118 967 769 12;
#X obj 64 77 notein;
#X obj 63 123 print in;
#X obj 636 39 bendin;
#X obj 102 157 print channel;
#X obj 631 122 route 8192 8960 10240 11520;
#X msg 630 162 0;
#X msg 674 161 1;
#X msg 714 161 2;
#X msg 758 159 3;
#X obj 594 353 table bend-states 64;
#X obj 594 321 tabwrite bend-states;
#X obj 596 210 pack 0 0;
#X msg 746 229 3 2;
#X obj 80 444 table midi-key-mapping 49;
#X obj 72 325 tabread midi-key-mapping;
#X msg 58 282 48;
#X obj 77 368 print res;
#X connect 0 0 1 0;
#X connect 0 2 3 0;
#X connect 2 0 4 0;
#X connect 2 1 11 1;
#X connect 4 0 5 0;
#X connect 4 1 6 0;
#X connect 4 2 7 0;
#X connect 4 3 8 0;
#X connect 5 0 11 0;
#X connect 6 0 11 0;
#X connect 7 0 11 0;
#X connect 8 0 11 0;
#X connect 11 0 10 0;
#X connect 12 0 10 0;
#X connect 14 0 16 0;
#X connect 15 0 14 0;
